<?xml version="1.0" encoding="UTF-8" standalone="no"?>
<!-- Created with Inkscape (http://www.inkscape.org/) -->

<svg
   xmlns:dc="http://purl.org/dc/elements/1.1/"
   xmlns:cc="http://creativecommons.org/ns#"
   xmlns:rdf="http://www.w3.org/1999/02/22-rdf-syntax-ns#"
   xmlns:svg="http://www.w3.org/2000/svg"
   xmlns="http://www.w3.org/2000/svg"
   xmlns:sodipodi="http://sodipodi.sourceforge.net/DTD/sodipodi-0.dtd"
   xmlns:inkscape="http://www.inkscape.org/namespaces/inkscape"
   version="1.1"
   id="svg815"
   xml:space="preserve"
   width="800"
   height="800"
   viewBox="0 0 800 800"
   sodipodi:docname="lines-publicdomainvectors.org [Converted].svg"
   inkscape:version="0.92.4 (5da689c313, 2019-01-14)"><metadata
     id="metadata821"><rdf:RDF><cc:Work
         rdf:about=""><dc:format>image/svg+xml</dc:format><dc:type
           rdf:resource="http://purl.org/dc/dcmitype/StillImage" /><dc:title></dc:title></cc:Work></rdf:RDF></metadata><defs
     id="defs819"><clipPath
       clipPathUnits="userSpaceOnUse"
       id="clipPath831"><path
         d="M 0,600 H 600 V 0 H 0 Z"
         id="path829"
         inkscape:connector-curvature="0" /></clipPath></defs><sodipodi:namedview
     pagecolor="#ffffff"
     bordercolor="#666666"
     borderopacity="1"
     objecttolerance="10"
     gridtolerance="10"
     guidetolerance="10"
     inkscape:pageopacity="0"
     inkscape:pageshadow="2"
     inkscape:window-width="1920"
     inkscape:window-height="1018"
     id="namedview817"
     showgrid="false"
     inkscape:zoom="1.06125"
     inkscape:cx="400"
     inkscape:cy="249.23439"
     inkscape:window-x="-8"
     inkscape:window-y="-8"
     inkscape:window-maximized="1"
     inkscape:current-layer="g823" /><g
     id="g823"
     inkscape:groupmode="layer"
     inkscape:label="lines-publicdomainvectors.org [Converted]"
     transform="matrix(1.3333333,0,0,-1.3333333,0,800)"><path
       d="m 60.907,550.605 c 14.297,-16.473 27.001,-30.276 39.111,-40.335 10.482,-8.704 20.716,-14.494 30.323,-16.559 16.717,-3.575 33.842,4.542 49.821,13.986 16.061,9.498 31.662,19.702 48.043,24.6 15.648,4.667 31.7,3.19 44.029,-3.781 23.269,-13.183 34.743,-37.595 43.871,-55.045 3.471,-6.635 6.09,-11.798 7.973,-15.217 1.082,-1.962 1.373,-2.111 0.852,-0.838 -0.596,1.45 -0.366,1.538 0.91,-0.686 2.367,-4.126 5.764,-10.705 11.084,-18.495 6.166,-9.025 14.805,-18.78 27.605,-22.858 15.576,-4.944 37.869,-0.932 64.748,6.525 31.483,8.74 63.616,19.844 91.289,17.55 10.795,-0.905 19.774,-4.46 25.524,-9.866 5.533,-5.199 8.58,-12.149 10.273,-18.89 2.852,-11.373 2.639,-20.74 3.33,-27.289 0.379,-3.536 1.377,-5.112 1.84,-3.574 -0.746,0.763 -1.478,1.533 -2.217,2.284 -0.529,-1.492 -1.67,0.248 -2.144,3.867 -0.844,6.623 -0.758,16.043 -3.596,27.485 -3.308,13.354 -15.156,27.387 -34.859,29.302 -27.008,2.6 -58.637,-8.396 -89.715,-17.248 -26.662,-7.59 -48.781,-11.904 -64.352,-7.272 -12.726,3.798 -21.377,13.296 -27.498,22.106 -5.293,7.62 -8.662,14.092 -11.004,18.09 -1.281,2.186 -1.515,2.036 -0.925,0.542 0.517,-1.313 0.218,-1.206 -0.862,0.728 -1.865,3.344 -4.465,8.453 -7.896,15.03 -9.031,17.304 -20.291,41.593 -43.279,54.956 -12.158,7.05 -28.047,8.712 -43.549,4.193 -16.253,-4.739 -31.757,-14.837 -47.699,-24.299 -15.882,-9.429 -32.82,-17.639 -49.353,-14.236 -9.455,1.954 -19.516,7.607 -29.771,16.151 -11.849,9.873 -24.228,23.47 -38.126,39.714 -1.249,-0.208 -2.51,-0.411 -3.781,-0.621"
       style="fill:#a11768;fill-opacity:1;fill-rule:nonzero;stroke:none"
       id="path833"
       inkscape:connector-curvature="0" /><path
       d="m 60.653,542.542 c 14.2,-15.692 26.85,-28.649 38.893,-37.823 10.436,-7.946 20.692,-12.978 30.229,-14.432 16.976,-2.577 33.959,6.178 50.119,15.807 16.148,9.623 31.915,19.635 48.343,24.192 15.706,4.345 31.718,2.44 44.007,-4.737 23.146,-13.552 34.59,-37.741 43.662,-55.06 3.43,-6.551 5.998,-11.623 7.823,-14.991 1.007,-1.861 1.201,-1.941 0.638,-0.653 -0.566,1.304 -0.281,1.137 1.061,-1.282 2.472,-4.461 5.967,-11.306 11.398,-19.408 6.283,-9.365 15.008,-19.456 27.988,-23.864 15.696,-5.313 38.286,-1.682 65.53,5.553 32.058,8.526 64.898,19.656 93.515,17.838 11.192,-0.719 20.528,-4.014 26.59,-9.253 5.748,-4.979 8.973,-11.802 10.692,-18.427 2.9,-11.207 2.47,-20.487 2.888,-26.918 0.227,-3.447 0.926,-4.799 1.287,-3.261 -0.431,0.441 -0.859,0.883 -1.285,1.323 -0.385,-1.515 -1.199,-0.054 -1.47,3.44 -0.498,6.487 -0.147,15.799 -3.045,27.048 -1.703,6.657 -4.879,13.509 -10.547,18.552 -5.946,5.291 -15.147,8.664 -26.18,9.448 -28.236,1.988 -60.781,-9.098 -92.611,-17.689 -27.117,-7.322 -49.612,-11.125 -65.299,-5.99 -12.938,4.249 -21.664,14.194 -27.924,23.438 -5.414,8.001 -8.891,14.783 -11.348,19.17 -1.341,2.393 -1.636,2.524 -1.068,1.194 0.557,-1.306 0.359,-1.256 -0.648,0.588 -1.815,3.327 -4.371,8.37 -7.78,14.886 -9.017,17.235 -20.341,41.355 -43.33,55.003 -12.189,7.221 -28.109,9.221 -43.733,4.962 -16.355,-4.467 -32.068,-14.415 -48.146,-24.017 -16.108,-9.615 -32.986,-18.412 -49.862,-15.931 -9.453,1.401 -19.616,6.357 -29.928,14.218 -11.895,9.08 -24.365,21.925 -38.349,37.49 -0.699,-0.141 -1.403,-0.274 -2.11,-0.414"
       style="fill:#4d9b94;fill-opacity:1;fill-rule:nonzero;stroke:none"
       id="path835"
       inkscape:connector-curvature="0" /><path
       d="m 43.393,551.2 c 16.246,-17.754 30.508,-32.823 43.889,-44.066 11.596,-9.735 22.635,-16.46 32.981,-19.303 17.478,-4.786 35.522,2.501 51.823,11.879 16.534,9.511 32.447,20.27 49.341,26.007 16.248,5.508 33.016,5.105 46.167,-1.321 24.582,-12.053 37.168,-37.061 46.804,-55.245 3.698,-6.977 6.463,-12.473 8.469,-16.299 1.16,-2.219 1.483,-2.683 0.987,-1.641 -0.647,1.367 -0.538,1.342 0.648,-0.875 2.367,-4.425 5.795,-11.26 11.102,-19.602 6.218,-9.781 14.584,-20.547 27.419,-25.975 15.174,-6.4 37.709,-4.089 64.94,2.571 32.744,8.015 66.85,19.631 97.65,19.102 12.196,-0.219 22.485,-2.91 29.366,-7.866 6.359,-4.584 10.103,-11.288 11.988,-17.849 3.203,-11.151 2.484,-20.568 2.519,-26.959 0.026,-3.444 0.358,-4.513 0.571,-2.938 -0.803,0.84 -1.614,1.658 -2.409,2.482 -0.281,-1.515 -0.793,-0.233 -0.933,3.289 -0.231,6.514 0.351,15.984 -2.815,27.238 -1.877,6.619 -5.48,13.393 -11.679,18.105 -6.657,5.044 -16.67,7.9 -28.559,8.233 -30.092,0.826 -63.644,-10.736 -95.98,-18.923 -27.01,-6.833 -49.379,-9.487 -64.543,-3.408 -12.758,5.132 -21.121,15.637 -27.293,25.194 -5.27,8.164 -8.662,14.882 -11.006,19.176 -1.186,2.17 -1.307,2.113 -0.67,0.712 0.492,-1.079 0.158,-0.669 -0.996,1.51 -1.988,3.749 -4.729,9.185 -8.381,16.099 -9.529,18.037 -21.866,42.931 -46.158,55.176 -12.965,6.518 -29.569,7.106 -45.666,1.749 -16.765,-5.588 -32.583,-16.236 -48.99,-25.728 -16.196,-9.371 -34.032,-16.772 -51.288,-12.167 -10.17,2.723 -21.003,9.306 -32.328,18.871 -13.073,11.044 -26.94,25.899 -42.716,43.408 -1.406,-0.198 -2.824,-0.414 -4.254,-0.636"
       style="fill:#d05b25;fill-opacity:1;fill-rule:nonzero;stroke:none"
       id="path837"
       inkscape:connector-curvature="0" /><path
       d="m 33.959,548.012 c 17.36,-18.16 32.505,-33.577 46.604,-45.06 12.219,-9.928 23.738,-16.792 34.477,-19.711 18.076,-4.893 36.571,2.425 53.201,11.933 16.876,9.642 33.097,20.605 50.328,26.509 16.621,5.682 33.763,5.399 47.269,-1.031 25.134,-12.008 38.111,-37.251 47.906,-55.649 3.744,-7.03 6.516,-12.556 8.486,-16.435 1.106,-2.177 1.319,-2.646 0.741,-1.554 -0.645,1.211 -0.465,0.774 0.867,-1.837 2.557,-5.016 6.219,-12.431 11.826,-21.397 6.541,-10.454 15.315,-21.846 28.777,-27.6 7.752,-3.307 17.278,-4.722 27.944,-4.318 11.83,0.449 25.289,2.955 40.308,6.424 34.338,7.934 69.965,19.385 101.659,18.462 12.404,-0.371 22.742,-3.176 29.533,-8.17 6.232,-4.582 9.758,-11.205 11.398,-17.569 2.748,-10.728 1.674,-19.537 1.233,-25.15 -0.231,-2.847 -0.395,-2.992 -0.332,-0.864 -0.844,0.878 -1.69,1.738 -2.524,2.6 -0.142,-2.032 -0.185,-1.658 -0.072,1.265 0.23,5.778 1.144,14.65 -1.582,25.496 -1.641,6.436 -5.041,13.125 -11.113,17.846 -6.565,5.085 -16.62,8.059 -28.7,8.543 -30.933,1.228 -65.959,-10.177 -99.845,-18.294 -14.879,-3.562 -28.227,-6.2 -39.989,-6.81 -10.603,-0.546 -20.084,0.688 -27.814,3.828 -13.379,5.443 -22.147,16.558 -28.631,26.778 -5.568,8.774 -9.184,16.05 -11.721,20.929 -1.318,2.542 -1.513,2.887 -0.886,1.648 0.564,-1.116 0.343,-0.718 -0.754,1.414 -1.957,3.799 -4.701,9.262 -8.397,16.226 -9.683,18.244 -22.399,43.368 -47.232,55.569 -13.316,6.521 -30.287,6.992 -46.752,1.464 -17.099,-5.752 -33.224,-16.598 -49.964,-26.229 -16.524,-9.497 -34.8,-16.938 -52.636,-12.225 -10.552,2.798 -21.853,9.515 -33.773,19.277 -13.77,11.274 -28.484,26.476 -45.323,44.393 -1.492,-0.227 -2.997,-0.461 -4.517,-0.701"
       style="fill:#fbf6ba;fill-opacity:1;fill-rule:nonzero;stroke:none"
       id="path839"
       inkscape:connector-curvature="0" /><path
       d="m 21.893,549.849 c 18.835,-19.094 35.159,-35.477 50.236,-47.848 13.061,-10.72 25.201,-18.291 36.492,-21.803 18.65,-5.786 37.781,0.861 54.633,10.265 17.17,9.585 33.577,20.87 51.102,27.291 16.99,6.213 34.566,6.613 48.589,0.535 25.954,-11.278 39.662,-36.907 49.785,-55.748 3.891,-7.242 6.764,-12.985 8.803,-17.092 1.166,-2.351 1.403,-3.047 0.811,-2.034 -0.705,1.201 -0.59,0.655 0.726,-2.028 2.555,-5.202 6.282,-12.832 11.928,-22.142 6.623,-10.912 15.34,-22.864 28.908,-29.322 7.74,-3.68 17.307,-5.503 28.055,-5.437 11.902,0.074 25.531,2.27 40.783,5.522 35.186,7.499 72.061,19.076 105.399,18.833 13.138,-0.108 24.113,-2.554 31.451,-7.342 6.601,-4.302 10.433,-10.776 12.109,-17.002 2.824,-10.514 1.418,-19.235 0.553,-24.518 -0.451,-2.709 -1.063,-2.411 -1.151,-0.063 -0.791,0.807 -1.572,1.611 -2.341,2.417 0,-2.237 0.404,-2.32 0.756,0.461 0.656,5.456 1.918,14.242 -0.893,24.871 -1.66,6.304 -5.381,12.849 -11.83,17.28 -7.113,4.878 -17.824,7.475 -30.652,7.682 -32.635,0.508 -68.946,-11.056 -103.723,-18.745 -15.123,-3.344 -28.651,-5.669 -40.494,-5.895 -10.688,-0.201 -20.211,1.461 -27.936,4.989 -13.488,6.174 -22.193,17.874 -28.763,28.567 -5.606,9.135 -9.286,16.632 -11.825,21.712 -1.302,2.609 -1.429,3.068 -0.748,1.846 0.574,-1.028 0.332,-0.408 -0.822,1.898 -2.027,4.036 -4.873,9.715 -8.719,16.897 -10.015,18.702 -23.475,44.224 -49.153,55.688 -13.848,6.164 -31.271,5.931 -48.12,-0.141 -17.411,-6.286 -33.723,-17.485 -50.776,-27.061 -16.746,-9.401 -35.673,-16.17 -54.082,-10.544 -11.106,3.404 -23.023,10.841 -35.793,21.4 -14.739,12.189 -30.651,28.355 -48.963,47.23 -1.43,-0.221 -2.879,-0.402 -4.335,-0.619"
       style="fill:#637930;fill-opacity:1;fill-rule:nonzero;stroke:none"
       id="path841"
       inkscape:connector-curvature="0" /><path
       d="m 27.555,539.771 c 17.998,-17.886 33.687,-32.883 48.192,-43.865 12.555,-9.497 24.389,-15.89 35.322,-18.401 18.611,-4.256 37.281,3.588 54.233,13.322 17.148,9.852 33.684,20.831 51.178,26.634 16.911,5.603 34.299,5.126 48.02,-1.44 25.46,-12.215 38.695,-37.485 48.57,-55.966 3.758,-7.035 6.52,-12.556 8.424,-16.455 1.041,-2.133 1.137,-2.618 0.451,-1.5 -0.654,1.068 -0.404,0.142 1.078,-2.902 2.719,-5.588 6.612,-13.585 12.477,-23.178 6.82,-11.145 15.865,-23.199 29.797,-29.51 7.982,-3.608 17.808,-5.307 28.84,-5.137 12.228,0.186 26.189,2.484 41.791,5.78 35.754,7.568 72.994,18.892 106.222,18.262 12.998,-0.251 23.78,-2.832 30.911,-7.642 6.414,-4.33 10.066,-10.734 11.587,-16.844 2.588,-10.287 1.057,-18.72 0.014,-23.661 -0.535,-2.504 -1.334,-1.898 -1.474,0.636 0.501,-0.516 1.003,-1.04 1.511,-1.561 0.194,-2.616 1.129,-3.363 1.737,-0.903 1.173,4.819 2.794,13.2 0.222,23.413 -1.523,6.057 -5.25,12.414 -11.756,16.662 -7.275,4.751 -18.224,7.235 -31.422,7.427 -33.685,0.465 -71.296,-10.868 -107.324,-18.309 -15.687,-3.239 -29.717,-5.452 -41.988,-5.546 -11.068,-0.082 -20.922,1.722 -28.918,5.428 -13.986,6.492 -23.039,18.708 -29.895,29.994 -5.894,9.709 -9.816,17.799 -12.548,23.465 -1.493,3.098 -1.739,4.092 -1.067,3.03 0.699,-1.104 0.61,-0.577 -0.439,1.587 -1.91,3.943 -4.692,9.507 -8.475,16.58 -9.941,18.57 -23.329,43.912 -48.964,56.02 -13.832,6.516 -31.317,6.884 -48.32,1.199 -17.57,-5.891 -34.162,-16.935 -51.388,-26.792 -17.017,-9.74 -35.811,-17.524 -54.564,-13.17 -11.045,2.571 -23.007,9.048 -35.739,18.635 -14.714,11.08 -30.641,26.218 -48.961,44.233 0.892,0.165 1.781,0.318 2.665,0.475"
       style="fill:#f48148;fill-opacity:1;fill-rule:nonzero;stroke:none"
       id="path843"
       inkscape:connector-curvature="0" /><path
       d="m 1.479,546.939 c 21.363,-20.084 39.71,-37.431 56.421,-50.618 14.475,-11.422 27.682,-19.588 39.854,-23.591 19.817,-6.499 39.886,-0.4 57.234,8.996 17.704,9.602 34.525,21.28 52.563,28.264 17.627,6.818 35.88,7.961 50.703,2.277 27.194,-10.458 42.067,-36.544 52.685,-56.002 4.104,-7.522 7.12,-13.566 9.206,-17.984 1.224,-2.599 1.441,-3.645 0.742,-2.705 -0.824,1.105 -0.78,0.158 0.623,-2.922 2.615,-5.746 6.572,-14.024 12.426,-24.146 6.888,-11.91 15.697,-24.97 29.621,-32.732 7.838,-4.367 17.588,-6.938 28.611,-7.503 12.178,-0.618 26.264,0.975 42.105,3.763 37.026,6.525 76.561,18.044 113.157,18.881 14.621,0.327 26.83,-1.49 35.259,-5.811 7.293,-3.746 11.739,-9.799 13.456,-15.648 2.896,-9.885 0.71,-18.274 -1.125,-22.632 -0.997,-2.368 -2.614,-1.068 -3.081,1.896 -1.177,1.225 -2.355,2.43 -3.511,3.631 0.326,-2.746 1.64,-3.724 2.433,-1.237 1.506,4.68 3.422,13.177 0.565,23.286 -1.715,5.974 -5.944,12.175 -13.008,16.101 -8.068,4.477 -19.873,6.487 -34.006,6.297 -35.541,-0.509 -74.207,-12.071 -110.642,-18.926 -15.651,-2.944 -29.59,-4.737 -41.682,-4.342 -10.93,0.361 -20.621,2.694 -28.428,6.839 -13.806,7.346 -22.582,20.05 -29.381,31.636 -5.783,9.861 -9.662,17.922 -12.261,23.495 -1.372,2.942 -1.44,3.761 -0.659,2.623 0.664,-0.968 0.442,-0.035 -0.765,2.481 -2.071,4.318 -5.039,10.263 -9.074,17.695 -10.457,19.262 -24.951,45.205 -51.747,55.923 -14.567,5.81 -32.605,4.903 -50.028,-1.725 -17.876,-6.811 -34.563,-18.368 -52.098,-27.967 -17.187,-9.4 -36.953,-15.677 -56.381,-9.401 -11.882,3.849 -24.735,11.826 -38.741,23.025 -16.164,12.933 -33.841,29.968 -54.362,49.736 -2.199,-0.325 -4.428,-0.628 -6.684,-0.953"
       style="fill:#f15f1f;fill-opacity:1;fill-rule:nonzero;stroke:none"
       id="path845"
       inkscape:connector-curvature="0" /><path
       d="m 357.412,131.585 c -15.187,16.945 -28.011,30.995 -39.103,42.599 -10.112,10.576 -18.963,19.293 -26.892,26.313 -12.409,10.975 -23.037,17.958 -31.888,20.872 -13.541,4.432 -25.172,-0.582 -34.637,-6.012 -8.43,-4.844 -15.741,-9.671 -22.675,-10.689 -5.966,-0.86 -11.526,1.784 -15.456,6.731 -6.656,8.413 -9.621,20.628 -11.834,28.848 -0.81,3.011 -1.41,5.312 -1.836,6.815 -0.243,0.854 -0.308,0.916 -0.192,0.359 0.133,-0.636 0.08,-0.678 -0.205,0.29 -0.525,1.777 -1.264,4.572 -2.398,7.769 -1.275,3.591 -2.999,7.243 -5.445,8.255 -2.791,1.143 -6.499,-1.402 -10.559,-5.094 -4.251,-3.87 -8.13,-8.066 -11.086,-7.807 -1.08,0.099 -1.935,0.983 -2.454,2.426 -0.488,1.361 -0.732,3.242 -0.853,5.08 -0.199,3.071 -0.134,5.663 -0.162,7.44 -0.014,0.957 -0.097,1.35 -0.146,0.909 0.061,-0.179 0.124,-0.362 0.187,-0.54 0.055,0.431 0.149,-0.003 0.174,-0.985 0.043,-1.802 -0.014,-4.416 0.188,-7.526 0.237,-3.676 1.286,-7.476 3.238,-7.765 2.9,-0.412 6.731,3.684 10.938,7.515 4.032,3.668 7.715,6.261 10.505,5.199 2.431,-0.939 4.158,-4.505 5.423,-8.022 1.127,-3.136 1.86,-5.892 2.379,-7.619 0.286,-0.952 0.339,-0.883 0.208,-0.226 -0.115,0.574 -0.048,0.531 0.194,-0.313 0.421,-1.472 1.017,-3.753 1.816,-6.74 2.183,-8.16 5.085,-20.312 11.633,-28.81 3.851,-4.981 9.318,-7.735 15.179,-6.982 6.815,0.884 14.002,5.574 22.268,10.314 9.279,5.316 20.598,10.287 33.728,5.956 8.517,-2.824 18.702,-9.622 30.488,-20.285 7.507,-6.794 15.843,-15.212 25.315,-25.397 10.349,-11.129 22.239,-24.547 36.234,-40.639 2.503,-0.72 5.079,-1.472 7.726,-2.239"
       style="fill:#a11768;fill-opacity:1;fill-rule:nonzero;stroke:none"
       id="path847"
       inkscape:connector-curvature="0" /><path
       d="m 357.027,142.998 c -14.996,15.687 -27.671,28.662 -38.66,39.304 -10.028,9.708 -18.807,17.648 -26.678,23.948 -12.341,9.873 -22.987,15.899 -31.781,18.095 -13.752,3.411 -25.299,-2.236 -34.889,-7.867 -8.486,-4.984 -15.876,-9.721 -22.828,-10.583 -5.983,-0.729 -11.524,2.08 -15.438,7.071 -6.618,8.476 -9.577,20.524 -11.776,28.642 -0.801,2.959 -1.39,5.209 -1.803,6.684 -0.227,0.808 -0.271,0.84 -0.144,0.279 0.127,-0.57 0.062,-0.5 -0.238,0.548 -0.549,1.913 -1.311,4.807 -2.468,8.109 -1.298,3.696 -3.037,7.435 -5.512,8.512 -2.805,1.205 -6.55,-1.304 -10.646,-5.032 -4.304,-3.923 -8.237,-8.234 -11.267,-8.223 -1.107,0.009 -1.985,0.784 -2.527,2.148 -0.504,1.271 -0.759,3.091 -0.88,4.877 -0.201,2.993 -0.115,5.547 -0.119,7.287 -0.003,0.931 -0.06,1.27 -0.098,0.838 0.034,-0.104 0.07,-0.207 0.107,-0.309 0.044,0.428 0.106,0.063 0.113,-0.882 0.011,-1.757 -0.068,-4.325 0.134,-7.34 0.12,-1.801 0.373,-3.638 0.871,-4.937 0.532,-1.39 1.402,-2.198 2.498,-2.238 2.998,-0.1 6.904,4.157 11.182,8.056 4.081,3.716 7.811,6.252 10.615,5.091 2.467,-1.033 4.206,-4.726 5.499,-8.383 1.154,-3.265 1.911,-6.135 2.456,-8.019 0.3,-1.038 0.367,-1.092 0.239,-0.511 -0.124,0.569 -0.08,0.551 0.147,-0.25 0.411,-1.458 0.997,-3.698 1.792,-6.642 2.183,-8.085 5.106,-20.097 11.662,-28.621 3.869,-5.011 9.358,-7.878 15.281,-7.211 6.884,0.786 14.206,5.441 22.595,10.365 9.486,5.559 20.856,11.168 34.377,7.801 8.604,-2.16 19.003,-8.098 30.996,-17.818 7.63,-6.193 16.125,-13.98 25.792,-23.495 10.571,-10.403 22.73,-23.054 37.058,-38.307 1.422,-0.32 2.871,-0.655 4.338,-0.987"
       style="fill:#4d9b94;fill-opacity:1;fill-rule:nonzero;stroke:none"
       id="path849"
       inkscape:connector-curvature="0" /><path
       d="m 400.452,113.447 c -11.78,11.66 -22.38,22.092 -31.982,31.452 -8.986,8.756 -17.169,16.647 -24.683,23.749 -13.803,13.05 -25.572,23.665 -35.867,32.154 -15.819,13.027 -28.779,21.306 -39.392,24.978 -8.104,2.791 -15.551,2.804 -22.25,1.365 -6.2,-1.333 -11.827,-3.922 -16.806,-6.76 -9.189,-5.237 -17.03,-10.763 -24.512,-12.482 -6.444,-1.469 -12.456,0.566 -16.771,5.287 -7.187,7.905 -10.492,20.48 -12.851,29.032 -0.87,3.152 -1.508,5.591 -1.964,7.262 -0.262,0.961 -0.335,1.161 -0.224,0.709 0.146,-0.592 0.121,-0.585 -0.145,0.373 -0.527,1.894 -1.278,4.776 -2.415,8.171 -1.291,3.858 -2.967,7.867 -5.43,9.301 -2.731,1.576 -6.495,-0.579 -10.622,-4.277 -4.423,-3.968 -8.521,-8.635 -11.779,-9.177 -1.201,-0.194 -2.162,0.355 -2.774,1.595 -0.55,1.124 -0.852,2.871 -0.983,4.613 -0.222,2.932 -0.113,5.507 -0.083,7.233 0.015,0.93 -0.009,1.204 -0.034,0.77 0.066,-0.193 0.134,-0.38 0.198,-0.571 0.032,0.422 0.072,0.096 0.064,-0.855 -0.012,-1.761 -0.112,-4.359 0.11,-7.339 0.133,-1.77 0.425,-3.555 0.964,-4.732 0.597,-1.285 1.538,-1.907 2.716,-1.772 3.2,0.379 7.247,4.95 11.625,8.885 4.099,3.681 7.839,5.894 10.569,4.398 2.447,-1.357 4.123,-5.283 5.404,-9.064 1.128,-3.333 1.869,-6.172 2.391,-8.014 0.266,-0.939 0.294,-0.912 0.151,-0.301 -0.111,0.467 -0.035,0.294 0.225,-0.653 0.451,-1.64 1.083,-4.056 1.94,-7.186 2.328,-8.491 5.556,-21.005 12.624,-29.01 4.227,-4.767 10.134,-6.919 16.462,-5.572 7.348,1.574 15.052,6.941 24.048,12.068 10.075,5.734 22.918,10.554 37.915,5.318 10.166,-3.57 22.516,-11.635 37.439,-24.27 9.672,-8.187 20.652,-18.403 33.449,-30.899 6.932,-6.777 14.468,-14.271 22.695,-22.573 8.764,-8.838 18.396,-18.647 29.048,-29.563 3.721,-1.192 7.559,-2.403 11.53,-3.643"
       style="fill:#d05b25;fill-opacity:1;fill-rule:nonzero;stroke:none"
       id="path851"
       inkscape:connector-curvature="0" /><path
       d="m 429.017,107.586 c -14.849,13.377 -28.028,25.217 -39.83,35.732 -10.942,9.745 -20.815,18.449 -29.798,26.215 -16.329,14.135 -30.041,25.483 -41.869,34.448 -9.354,7.071 -17.698,12.734 -25.16,17.045 -6.958,4.021 -13.225,6.908 -18.873,8.678 -8.802,2.744 -16.815,2.62 -23.968,1.008 -6.598,-1.489 -12.545,-4.258 -17.78,-7.278 -9.636,-5.554 -17.814,-11.398 -25.596,-13.336 -6.702,-1.659 -12.931,0.254 -17.41,4.955 -7.405,7.81 -10.829,20.465 -13.235,29.07 -0.883,3.158 -1.524,5.596 -1.974,7.282 -0.25,0.939 -0.298,1.141 -0.167,0.672 0.146,-0.521 0.105,-0.332 -0.195,0.791 -0.571,2.131 -1.373,5.23 -2.573,8.835 -1.355,4.066 -3.105,8.225 -5.671,9.643 -1.407,0.772 -3.077,0.681 -4.873,-0.155 -1.9,-0.884 -3.961,-2.545 -6.139,-4.527 -4.536,-4.134 -8.707,-8.892 -11.964,-9.467 -1.185,-0.206 -2.122,0.324 -2.708,1.529 -0.523,1.083 -0.797,2.774 -0.904,4.436 -0.181,2.779 -0.042,5.174 0.024,6.691 0.035,0.769 0.051,0.815 0.033,0.245 0.068,-0.199 0.134,-0.393 0.203,-0.587 0.022,0.55 0.026,0.452 -0.001,-0.336 -0.047,-1.56 -0.173,-3.978 0.006,-6.809 0.109,-1.694 0.374,-3.422 0.887,-4.561 0.571,-1.252 1.489,-1.856 2.651,-1.711 3.197,0.405 7.314,5.062 11.805,9.156 2.16,1.969 4.207,3.633 6.099,4.539 1.787,0.855 3.449,0.984 4.853,0.251 2.551,-1.339 4.3,-5.412 5.642,-9.4 1.191,-3.539 1.981,-6.589 2.547,-8.667 0.296,-1.094 0.341,-1.244 0.199,-0.708 -0.127,0.481 -0.078,0.31 0.17,-0.611 0.446,-1.654 1.08,-4.068 1.95,-7.202 2.373,-8.545 5.717,-21.137 12.996,-29.053 4.386,-4.748 10.503,-6.782 17.08,-5.257 7.639,1.784 15.669,7.454 25.094,12.889 5.121,2.95 10.915,5.669 17.321,7.131 6.933,1.582 14.672,1.707 23.146,-0.989 11.128,-3.554 24.829,-11.822 41.717,-25.004 11.067,-8.638 23.799,-19.533 38.847,-33.034 8.232,-7.385 17.245,-15.624 27.188,-24.81 10.678,-9.865 22.526,-20.929 35.796,-33.355 4.632,-1.42 9.441,-2.872 14.434,-4.384"
       style="fill:#fbf6ba;fill-opacity:1;fill-rule:nonzero;stroke:none"
       id="path853"
       inkscape:connector-curvature="0" /><path
       d="m 475.508,85.973 c -20.531,17.155 -38.399,32.072 -54.127,45.115 -14.363,11.92 -27.141,22.431 -38.601,31.733 -10.634,8.624 -20.234,16.298 -28.989,23.099 -8.209,6.383 -15.724,12.058 -22.659,17.071 -11.144,8.065 -20.927,14.489 -29.569,19.39 -8,4.536 -15.127,7.821 -21.505,9.89 -9.698,3.133 -18.479,3.227 -26.242,1.7 -7.125,-1.406 -13.49,-4.198 -19.015,-7.339 -10.172,-5.794 -18.715,-12.093 -26.861,-14.507 -7.025,-2.066 -13.552,-0.567 -18.289,3.977 -7.754,7.47 -11.406,20.353 -13.907,29.158 -0.922,3.245 -1.59,5.77 -2.056,7.553 -0.265,1.009 -0.318,1.31 -0.184,0.879 0.161,-0.512 0.135,-0.273 -0.163,0.876 -0.572,2.204 -1.39,5.378 -2.602,9.102 -1.374,4.219 -3.115,8.565 -5.705,10.182 -1.406,0.874 -3.084,0.879 -4.895,0.104 -1.911,-0.821 -3.998,-2.456 -6.206,-4.456 -4.635,-4.199 -8.926,-9.187 -12.319,-10.134 -1.239,-0.341 -2.223,0.034 -2.846,1.136 -0.548,0.967 -0.838,2.582 -0.949,4.185 -0.181,2.682 -0.02,5.042 0.079,6.476 0.052,0.735 0.102,0.685 0.098,0.067 0.06,-0.178 0.125,-0.356 0.185,-0.537 0.012,0.595 -0.023,0.599 -0.066,-0.155 -0.083,-1.476 -0.235,-3.858 -0.053,-6.591 0.108,-1.634 0.394,-3.285 0.933,-4.305 0.609,-1.148 1.575,-1.589 2.793,-1.306 3.34,0.791 7.581,5.688 12.174,9.853 2.193,1.991 4.267,3.629 6.171,4.471 1.802,0.794 3.473,0.819 4.877,-0.018 2.574,-1.546 4.313,-5.816 5.677,-9.964 1.201,-3.665 2.008,-6.791 2.575,-8.948 0.295,-1.119 0.323,-1.319 0.169,-0.795 -0.13,0.439 -0.076,0.17 0.186,-0.821 0.463,-1.753 1.123,-4.256 2.033,-7.479 2.47,-8.75 6.043,-21.578 13.678,-29.155 4.649,-4.589 11.068,-6.206 17.976,-4.268 8.011,2.264 16.405,8.413 26.375,14.088 5.408,3.078 11.621,5.817 18.551,7.196 7.537,1.496 16.032,1.397 25.381,-1.693 6.115,-2.029 12.924,-5.25 20.541,-9.684 8.206,-4.779 17.455,-11.031 27.934,-18.85 13.365,-9.969 29.037,-22.644 47.962,-38.545 10.508,-8.834 22.169,-18.771 35.206,-29.984 14.192,-12.21 30.218,-26.08 48.489,-41.928 5.674,-1.839 11.613,-3.841 17.765,-5.839"
       style="fill:#637930;fill-opacity:1;fill-rule:nonzero;stroke:none"
       id="path855"
       inkscape:connector-curvature="0" /><path
       d="m 450.071,114.844 c -17.174,13.854 -32.312,25.982 -45.772,36.658 -12.403,9.831 -23.517,18.554 -33.568,26.277 -18.16,13.956 -33.254,24.998 -46.156,33.574 -10.137,6.731 -19.143,12.03 -27.154,15.977 -7.446,3.669 -14.118,6.215 -20.09,7.658 -9.384,2.258 -17.813,1.667 -25.301,-0.34 -6.888,-1.851 -13.07,-4.925 -18.531,-8.162 -9.992,-5.926 -18.474,-11.952 -26.489,-13.961 -6.899,-1.719 -13.279,0.205 -17.863,4.913 -7.545,7.776 -11.051,20.373 -13.484,28.957 -0.889,3.136 -1.529,5.555 -1.964,7.241 -0.236,0.915 -0.258,1.126 -0.102,0.653 0.149,-0.455 0.092,-0.051 -0.243,1.25 -0.608,2.357 -1.461,5.668 -2.717,9.476 -1.409,4.272 -3.209,8.594 -5.852,10.077 -1.44,0.803 -3.15,0.719 -4.992,-0.136 -1.945,-0.903 -4.059,-2.609 -6.291,-4.657 -4.648,-4.27 -8.92,-9.204 -12.254,-10.073 -1.21,-0.312 -2.165,0.087 -2.762,1.183 -0.524,0.966 -0.801,2.553 -0.895,4.119 -0.164,2.616 0.005,4.896 0.12,6.242 0.058,0.682 0.118,0.56 0.12,-0.101 -0.04,0.112 -0.078,0.227 -0.118,0.342 -0.002,0.678 -0.077,0.831 -0.139,0.158 -0.124,-1.315 -0.296,-3.579 -0.139,-6.165 0.097,-1.546 0.375,-3.109 0.904,-4.042 0.609,-1.066 1.572,-1.423 2.795,-1.075 3.368,0.969 7.672,5.964 12.347,10.255 2.242,2.057 4.365,3.759 6.314,4.653 1.848,0.846 3.562,0.908 5.004,0.084 2.653,-1.526 4.454,-5.897 5.872,-10.214 1.262,-3.846 2.122,-7.188 2.734,-9.577 0.338,-1.322 0.393,-1.756 0.24,-1.306 -0.159,0.466 -0.139,0.236 0.099,-0.691 0.438,-1.703 1.083,-4.139 1.979,-7.289 2.453,-8.618 6.005,-21.249 13.625,-28.963 4.641,-4.679 11.086,-6.527 18.061,-4.734 8.102,2.105 16.674,8.233 26.798,14.237 5.531,3.284 11.809,6.393 18.817,8.269 7.625,2.037 16.227,2.641 25.823,0.37 6.131,-1.457 12.989,-4.03 20.663,-7.745 8.267,-4.006 17.589,-9.387 28.116,-16.236 13.435,-8.745 29.214,-20.045 48.286,-34.377 10.589,-7.964 22.337,-16.968 35.487,-27.154 14.322,-11.088 30.481,-23.742 48.91,-38.239 -3.489,0.874 -6.905,1.761 -10.238,2.614"
       style="fill:#f48148;fill-opacity:1;fill-rule:nonzero;stroke:none"
       id="path857"
       inkscape:connector-curvature="0" /><path
       d="m 588.074,48.965 c -19.527,13.62 -37.261,26.03 -53.481,37.324 -15.115,10.533 -28.99,20.222 -41.798,29.126 -12.039,8.378 -23.198,16.119 -33.569,23.294 -9.822,6.794 -18.981,13.112 -27.562,18.977 -15.95,10.929 -30.039,20.451 -42.609,28.753 -11.597,7.665 -22.025,14.382 -31.484,20.246 -14.952,9.265 -27.728,16.521 -38.773,21.976 -10.085,4.982 -18.9,8.547 -26.674,10.768 -11.523,3.278 -21.77,3.309 -30.673,1.592 -8.106,-1.568 -15.237,-4.611 -21.327,-8.08 -11.157,-6.371 -20.395,-13.417 -29.187,-16.506 -7.596,-2.66 -14.617,-1.71 -19.773,2.601 -8.309,6.978 -12.331,20.087 -14.983,29.128 -0.98,3.344 -1.685,5.982 -2.165,7.885 -0.28,1.108 -0.328,1.563 -0.169,1.175 0.189,-0.46 0.179,-0.04 -0.139,1.27 -0.589,2.414 -1.463,5.818 -2.724,9.81 -1.432,4.535 -3.193,9.212 -5.848,11.141 -1.421,1.031 -3.127,1.183 -4.977,0.486 -1.948,-0.736 -4.09,-2.348 -6.366,-4.397 -4.819,-4.342 -9.335,-9.738 -12.97,-11.388 -1.337,-0.603 -2.397,-0.523 -3.09,0.344 -0.586,0.735 -0.917,2.156 -1.024,3.612 -0.178,2.438 0.038,4.697 0.208,5.908 0.094,0.66 0.216,0.402 0.24,-0.345 0.088,-0.263 0.18,-0.52 0.268,-0.78 -0.013,0.701 -0.114,0.893 -0.193,0.209 -0.147,-1.286 -0.344,-3.576 -0.167,-6.099 0.111,-1.503 0.427,-2.989 1,-3.8 0.671,-0.945 1.706,-1.118 3.012,-0.6 3.558,1.425 8.002,6.691 12.762,10.987 2.254,2.033 4.38,3.653 6.316,4.416 1.837,0.722 3.534,0.614 4.95,-0.366 2.634,-1.833 4.388,-6.404 5.8,-10.839 1.243,-3.906 2.099,-7.233 2.683,-9.581 0.311,-1.254 0.326,-1.616 0.147,-1.138 -0.151,0.405 -0.101,-0.001 0.174,-1.077 0.476,-1.863 1.168,-4.466 2.13,-7.778 2.603,-8.967 6.503,-22.007 14.63,-29.146 5.02,-4.387 11.879,-5.518 19.288,-3.052 8.581,2.869 17.586,9.672 28.417,15.849 5.899,3.361 12.774,6.317 20.547,7.823 8.516,1.65 18.26,1.587 29.15,-1.657 7.288,-2.177 15.51,-5.659 24.858,-10.499 10.188,-5.277 21.887,-12.262 35.461,-21.121 8.531,-5.574 17.883,-11.931 28.22,-19.147 11.137,-7.776 23.526,-16.638 37.451,-26.723 15.224,-11.034 32.499,-23.702 52.307,-38.322 10.761,-7.922 22.334,-16.494 34.844,-25.757 13.324,-9.855 27.781,-20.574 43.539,-32.256 13.401,-4.383 27.821,-9.161 43.323,-14.246"
       style="fill:#f15f1f;fill-opacity:1;fill-rule:nonzero;stroke:none"
       id="path859"
       inkscape:connector-curvature="0" /><path
       d="m 49.178,460.716 c 14.576,-21.657 12.839,-45.947 9.217,-64.04 -3.043,-15.189 -6.926,-27.129 -7.78,-37.12 -1.273,-15.171 5.586,-30.598 7.393,-46.38 1.92,-16.809 -2.509,-34.867 -10.434,-50.772 -7.58,-15.189 -15.91,-26.086 -14.185,-30.871 1.692,-4.613 9.653,-5.465 18.24,-6.633 9.283,-1.259 19.119,-2.38 27.433,-4.086 6.424,-1.32 11.381,-2.697 14.919,-3.726 2.069,-0.6 2.837,-0.676 2.042,-0.266 -0.935,0.487 -0.258,0.569 2.158,-0.183 4.471,-1.389 10.916,-3.688 17.86,-8.688 7.992,-5.76 15.679,-15.637 14.664,-30.832 -0.607,-8.969 -4.281,-19.73 -10.192,-30.746 -6.422,-11.947 -14.979,-23.469 -23.058,-34.83 -7.754,-10.902 -13.421,-20.076 -12.256,-27.506 1.083,-6.848 7.995,-12.881 15.011,-17.853 6.715,-4.768 12.59,-8.194 15.916,-9.856 3.398,-1.689 4.346,-1.644 3.473,-0.873 -1.357,1.201 -6.695,3.473 -10.466,4.436 -2.076,0.543 -3.269,0.416 -2.452,-0.043 -0.664,-0.098 -1.304,-0.178 -1.89,-0.231 -0.969,0.369 -0.082,0.424 1.855,-0.06 3.604,-0.911 8.978,-2.987 10.983,-3.922 1.303,-0.621 1.01,-0.533 -1.474,1.355 -2.482,1.885 -7.28,5.633 -12.997,10.737 -6.25,5.57 -12.527,12.029 -13.952,19.203 -1.487,7.527 2.978,16.783 9.711,27.404 7.008,11.061 14.74,22.154 20.538,33.674 5.354,10.637 8.669,21.029 9.092,29.719 0.695,14.712 -6.896,24.3 -14.755,29.875 -6.836,4.839 -13.134,7.052 -17.495,8.421 -2.318,0.727 -2.91,0.676 -1.956,0.233 0.81,-0.377 0.12,-0.287 -1.892,0.301 -3.471,1.009 -8.357,2.345 -14.708,3.615 -8.237,1.644 -17.996,2.695 -27.252,3.842 -8.591,1.064 -16.579,1.709 -18.476,6.091 -1.863,4.381 6.317,14.897 14.216,29.692 8.337,15.644 13.549,33.564 12.417,50.544 -1.067,15.896 -7.352,31.579 -5.868,46.622 0.988,9.844 4.945,21.494 8.463,36.262 4.203,17.631 7.432,41.031 -4.595,63.261 -2.42,1.45 -4.906,2.869 -7.468,4.23"
       style="fill:#f15f1f;fill-opacity:1;fill-rule:nonzero;stroke:none"
       id="path861"
       inkscape:connector-curvature="0" /><path
       d="M 70.243,437.867 C 74.117,415.796 68.005,396.435 63.202,381.128 59.245,368.499 56.059,358.159 55.48,349.19 54.561,334.667 59.965,318.649 59.233,302.394 58.438,285.053 51.226,267.662 42.321,253.033 34.2,239.705 27.74,230.451 30.398,227.381 c 3.242,-3.697 11.336,-3.92 19.984,-4.836 9.184,-0.979 18.603,-1.955 26.495,-3.52 5.995,-1.187 10.534,-2.427 13.679,-3.351 1.713,-0.502 2.067,-0.537 1.142,-0.172 -0.884,0.352 -0.177,0.289 2.241,-0.494 4.402,-1.426 10.665,-3.635 17.355,-8.479 7.611,-5.519 14.755,-15.16 13.999,-29.447 -0.454,-8.498 -3.594,-18.463 -8.341,-28.635 -5.096,-10.914 -11.663,-21.304 -16.892,-31.799 -4.943,-9.935 -7.058,-19.078 -4.726,-26.502 2.367,-7.521 8.007,-14.343 13.122,-20.623 4.331,-5.322 7.457,-9.23 8.619,-11.38 1.046,-1.94 0.329,-2.233 -1.663,-1.823 -3.051,0.627 -8.408,2.284 -11.8,3.035 -1.742,0.397 -2.174,0.385 -1.009,0.102 0.188,0.008 0.378,0 0.582,0.014 -1.127,0.306 -0.606,0.328 1.168,-0.08 3.417,-0.801 8.737,-2.551 11.547,-3.297 1.827,-0.487 2.309,-0.307 0.92,1.586 -1.478,2.008 -4.99,5.834 -9.662,11.049 -5.422,6.046 -11.266,12.726 -13.498,20.144 -2.213,7.367 0.383,16.523 5.74,26.561 5.68,10.627 12.599,21.189 17.972,32.287 4.998,10.33 8.286,20.457 8.831,29.08 0.893,14.502 -6.284,24.263 -13.949,29.861 -6.735,4.914 -13.06,7.154 -17.512,8.596 -2.455,0.791 -3.208,0.846 -2.326,0.48 0.917,-0.381 0.535,-0.353 -1.199,0.155 -3.175,0.931 -7.745,2.189 -13.768,3.396 -7.927,1.588 -17.38,2.596 -26.578,3.613 -8.651,0.959 -16.753,1.241 -19.886,5.049 -2.619,3.221 3.976,12.654 12.015,26.174 8.78,14.768 15.697,32.256 16.145,49.562 0.409,16.228 -5.306,32.142 -4.499,46.688 0.509,9.014 3.669,19.449 7.5,32.248 4.636,15.497 10.449,35.209 5.677,57.304 0.823,-0.677 1.627,-1.367 2.42,-2.06"
       style="fill:#f48148;fill-opacity:1;fill-rule:nonzero;stroke:none"
       id="path863"
       inkscape:connector-curvature="0" /><path
       d="m 71.062,446.631 c 6.78,-22.935 0.99,-44.351 -4.287,-60.993 C 62.382,371.798 58.266,360.74 56.98,351.202 55.011,336.42 59.982,320.245 59.491,304.177 58.957,286.939 52.209,269.391 43.106,254.363 34.68,240.457 26.965,230.752 29.11,227.221 c 2.401,-3.899 10.421,-4.129 19.024,-4.992 9.201,-0.922 18.799,-1.833 26.874,-3.354 6.196,-1.168 10.937,-2.418 14.27,-3.393 1.897,-0.554 2.426,-0.669 1.595,-0.359 -0.989,0.371 -0.579,0.357 1.562,-0.322 4.122,-1.315 10.131,-3.362 16.741,-7.887 7.585,-5.201 14.975,-14.217 14.903,-27.937 -0.055,-8.114 -2.658,-17.739 -6.871,-27.612 -4.533,-10.627 -10.583,-20.877 -15.44,-31.265 -4.688,-10.047 -6.734,-19.284 -4.537,-26.971 2.21,-7.707 7.561,-14.826 12.394,-21.543 4.049,-5.643 6.903,-9.891 7.805,-12.426 0.778,-2.168 -0.143,-2.74 -2.302,-2.494 -3.307,0.385 -8.822,1.951 -12.282,2.666 -1.799,0.363 -2.183,0.398 -1.028,0.156 -0.25,0.012 -0.478,0.041 -0.681,0.069 -1.21,0.214 -0.916,0.172 0.871,-0.151 3.447,-0.631 9.026,-2.027 12.741,-2.211 2.414,-0.125 3.722,0.651 3.396,2.881 -0.409,2.746 -2.763,7.137 -6.388,12.92 -4.425,7.037 -9.582,14.324 -12.058,22.162 -2.432,7.725 -1.133,16.903 2.926,26.774 4.18,10.164 9.709,20.154 13.856,30.498 3.852,9.629 6.24,19.009 6.176,26.945 -0.124,13.402 -7.442,22.244 -14.937,27.332 -6.537,4.43 -12.459,6.426 -16.504,7.721 -2.091,0.668 -2.444,0.695 -1.443,0.347 0.842,-0.293 0.361,-0.17 -1.504,0.375 -3.286,0.961 -7.982,2.188 -14.131,3.325 -8.022,1.482 -17.567,2.349 -26.751,3.205 -8.607,0.8 -16.626,0.91 -19.213,4.646 -2.228,3.264 5.285,12.703 13.845,26.305 9.315,14.81 16.525,32.211 17.597,49.503 0.988,16.107 -3.531,32.425 -1.391,47.12 1.386,9.442 5.549,20.313 10.188,33.846 5.59,16.312 12.037,37.091 6.882,60.089 -1.378,1.158 -2.781,2.315 -4.233,3.442"
       style="fill:#637930;fill-opacity:1;fill-rule:nonzero;stroke:none"
       id="path865"
       inkscape:connector-curvature="0" /><path
       d="m 80.2,435.338 c 2.162,-22.585 -5.084,-41.846 -10.872,-57.26 -4.763,-12.717 -8.685,-23.11 -9.98,-32.235 -2.039,-14.515 1.959,-30.964 0.202,-47.165 -1.898,-17.364 -9.854,-34.485 -19.36,-48.838 -8.599,-12.981 -15.381,-21.887 -12.897,-24.662 3.121,-3.43 11.144,-3.405 19.765,-4.141 9.15,-0.779 18.562,-1.613 26.454,-3.058 6.017,-1.102 10.592,-2.29 13.759,-3.219 1.769,-0.518 2.138,-0.633 1.25,-0.346 -0.988,0.318 -0.637,0.258 1.466,-0.422 4.013,-1.297 9.885,-3.265 16.346,-7.646 7.379,-5.008 14.544,-13.772 14.772,-26.881 0.122,-7.783 -2.089,-16.92 -5.586,-26.293 -3.751,-10.039 -8.708,-19.729 -12.11,-29.615 -6.108,-17.801 2.885,-34.457 10.82,-49.104 3.175,-5.879 5.002,-10.398 4.843,-13.301 -0.133,-2.291 -1.905,-3.248 -4.573,-3.259 -4.168,-0.028 -9.777,1.156 -13.228,1.685 -1.766,0.27 -1.977,0.305 -0.741,0.121 -0.163,0.055 -0.323,0.123 -0.449,0.207 -1.274,0.157 -1.091,0.141 0.673,-0.07 3.482,-0.41 9.163,-1.4 13.746,-1.147 2.909,0.168 5.094,1.291 5.609,3.694 0.639,3.062 -0.741,7.765 -3.561,13.767 -7.196,15.278 -17.199,31.696 -12.248,49.37 2.701,9.632 7.108,19.058 10.445,28.796 3.118,9.114 5.095,17.993 4.845,25.58 -0.428,12.772 -7.521,21.354 -14.806,26.243 -6.383,4.281 -12.167,6.199 -16.093,7.472 -2.057,0.666 -2.348,0.744 -1.343,0.444 0.904,-0.272 0.581,-0.151 -1.159,0.361 -3.114,0.916 -7.645,2.078 -13.61,3.147 -7.835,1.406 -17.189,2.193 -26.319,2.906 -8.622,0.672 -16.637,0.554 -19.968,3.791 -2.562,2.519 3.939,11.111 12.625,23.748 9.679,14.09 18.092,31.015 20.559,48.392 2.297,16.223 -1.171,32.802 1.064,47.244 1.408,9.028 5.379,19.24 10.345,31.63 6.041,15.067 13.774,33.691 13.124,56.093 -1.222,1.34 -2.489,2.667 -3.809,3.971"
       style="fill:#fbf6ba;fill-opacity:1;fill-rule:nonzero;stroke:none"
       id="path867"
       inkscape:connector-curvature="0" /><path
       d="M 89.045,427.449 C 88.146,405.237 79.881,387.143 73.419,372.366 68.117,360.233 63.921,350.17 62.229,341.201 59.544,326.88 62.254,310.195 59.391,294.063 56.316,276.77 47.532,260.088 37.624,246.242 28.774,233.887 22.215,225.533 24.683,223.176 c 3.277,-3.082 11.216,-2.856 19.797,-3.434 9.086,-0.609 18.416,-1.322 26.247,-2.658 5.993,-1.021 10.571,-2.158 13.729,-3.078 1.822,-0.529 2.216,-0.709 1.377,-0.481 -1.101,0.299 -1.053,0.245 0.76,-0.339 3.597,-1.165 9.073,-2.916 15.273,-6.838 7.127,-4.508 14.307,-12.34 15.481,-24.266 1.415,-14.586 -7.156,-32.793 -11.358,-51.469 -3.957,-17.664 6.179,-33.804 13.069,-50.054 2.719,-6.44 3.904,-11.762 2.976,-15.397 -0.753,-2.918 -3.231,-4.527 -6.401,-5.041 -4.987,-0.795 -11.07,-0.041 -14.877,0.207 -2.046,0.137 -2.456,0.123 -1.369,0.018 -0.053,0.107 -0.103,0.228 -0.122,0.355 -1.11,0.096 -0.66,0.156 1.414,0.098 3.867,-0.106 10.043,-0.656 15.41,0.383 3.376,0.666 6.201,2.404 7.269,5.455 1.293,3.746 0.464,9.23 -2.036,15.759 -6.391,16.659 -17.554,32.51 -14.709,50.002 2.961,18.123 10.906,35.811 9.287,50.051 -1.337,11.619 -8.436,19.301 -15.468,23.707 -6.126,3.834 -11.526,5.545 -15.039,6.686 -1.786,0.58 -1.781,0.648 -0.657,0.361 0.865,-0.223 0.505,-0.033 -1.293,0.49 -3.105,0.905 -7.644,2.018 -13.589,3.01 -7.775,1.299 -17.049,1.973 -26.119,2.522 -8.585,0.519 -16.515,0.22 -20.011,3.105 -2.545,2.129 3.707,10.162 12.599,22.178 10.042,13.572 19.217,30.051 22.825,47.32 3.362,16.131 1.175,32.91 4.05,47.151 1.802,8.869 6.045,18.753 11.502,30.565 6.669,14.428 15.3,31.934 17.502,53.819 -1,1.379 -2.057,2.738 -3.157,4.086"
       style="fill:#d05b25;fill-opacity:1;fill-rule:nonzero;stroke:none"
       id="path869"
       inkscape:connector-curvature="0" /><path
       d="M 92.377,406.96 C 87.083,387.728 78.712,372.875 72.762,360.289 67.929,350.057 64.637,340.987 63.318,332.716 61.066,318.521 62.387,301.701 57.729,285.416 52.805,268.238 42.617,252.496 32.84,240.012 24.475,229.336 20.279,222.633 23.552,221.076 c 10.793,-5.072 31.752,-2.385 46.645,-4.941 5.618,-0.963 9.85,-2.024 12.651,-2.86 1.54,-0.459 1.642,-0.578 0.614,-0.334 -1.044,0.247 -0.849,0.106 1.149,-0.552 3.662,-1.203 9.171,-2.985 15.263,-6.948 6.91,-4.502 13.668,-12.472 14.773,-24.037 1.347,-14.349 -6.353,-31.49 -7.593,-48.982 -1.201,-17.213 11.455,-32.635 16.873,-49.365 2.063,-6.401 2.327,-11.797 0.559,-15.391 -1.489,-3.002 -4.686,-4.705 -8.262,-5.439 -5.721,-1.166 -11.823,-0.842 -15.633,-0.883 -2.029,-0.02 -2.443,-0.135 -1.26,-0.237 0.011,0.082 0.024,0.166 0.042,0.254 -1.186,0.094 -0.75,0.252 1.313,0.315 3.858,0.125 10.008,-0.098 15.893,1.205 3.678,0.81 7.016,2.584 8.654,5.66 1.932,3.639 1.829,9.111 -0.134,15.551 -5.17,16.885 -18.258,32.15 -17.671,49.304 0.607,17.17 7.927,34.067 6.462,48.223 -1.203,11.397 -7.92,19.283 -14.781,23.733 -6.05,3.916 -11.522,5.673 -15.135,6.863 -1.983,0.652 -2.157,0.803 -1.095,0.558 1.04,-0.238 0.959,-0.115 -0.573,0.342 -2.773,0.826 -6.986,1.875 -12.578,2.826 -14.833,2.52 -35.668,-0.093 -46.668,4.719 -3.332,1.477 0.697,7.99 9.045,18.477 9.803,12.32 20.157,27.931 25.349,45.06 4.921,16.269 3.903,33.122 6.281,47.302 1.39,8.23 4.708,17.232 9.589,27.322 6.015,12.422 14.482,27.024 20.197,45.997 -0.374,0.713 -0.75,1.432 -1.144,2.142"
       style="fill:#4d9b94;fill-opacity:1;fill-rule:nonzero;stroke:none"
       id="path871"
       inkscape:connector-curvature="0" /><path
       d="M 98.253,408.884 C 92.592,388.78 83.409,373.282 76.566,360.187 71.019,349.562 66.962,340.303 65.058,331.833 61.912,317.763 62.644,300.793 57.751,284.633 52.554,267.502 42.236,251.75 32.064,239.18 23.337,228.395 18.545,221.594 21.553,220.094 c 10.31,-5.065 31.526,-1.985 46.582,-4.418 5.712,-0.926 10.041,-1.971 12.906,-2.813 1.638,-0.484 1.813,-0.656 0.804,-0.437 -1.155,0.25 -1.148,0.121 0.71,-0.49 3.429,-1.129 8.768,-2.803 14.744,-6.559 6.796,-4.277 13.552,-11.887 15.052,-22.916 1.845,-13.711 -4.71,-30.223 -4.219,-46.832 0.521,-17.096 14.442,-32.127 19.231,-49.371 1.806,-6.545 1.602,-12.192 -0.625,-15.93 -1.927,-3.232 -5.56,-5.121 -9.435,-6.092 -6.237,-1.545 -12.481,-1.558 -16.391,-1.84 -2.088,-0.156 -2.544,-0.386 -1.293,-0.484 0.07,0.18 0.164,0.363 0.251,0.555 -1.259,0.101 -0.722,0.4 1.422,0.646 3.982,0.438 10.311,0.647 16.804,2.422 8.032,2.201 14.346,10.363 11.25,22.627 -4.444,17.412 -19.011,32.174 -20.627,49.131 -1.507,16.029 4.369,32.145 2.323,45.533 -1.657,10.738 -8.339,18.213 -15.046,22.397 -5.906,3.679 -11.182,5.318 -14.529,6.423 -1.839,0.61 -1.805,0.741 -0.621,0.502 1.038,-0.21 0.887,-0.035 -0.735,0.444 -2.814,0.828 -7.108,1.853 -12.776,2.754 -14.952,2.369 -35.936,-0.555 -46.647,4.035 -3.115,1.355 1.364,7.81 10.053,18.26 10.21,12.279 20.82,27.798 26.475,44.839 5.342,16.122 5.123,33.135 8.47,47.141 2.013,8.385 6.103,17.494 11.733,27.836 6.954,12.775 16.313,27.79 22.795,47.39 -0.617,1.348 -1.271,2.695 -1.961,4.037"
       style="fill:#a11768;fill-opacity:1;fill-rule:nonzero;stroke:none"
       id="path873"
       inkscape:connector-curvature="0" /><path
       d="m 305.928,314.931 c 12.301,0.413 26.879,1.607 42.99,5.29 33.885,7.766 68.553,21.375 93.916,9.909 10.305,-4.681 18.172,-12.03 23.443,-18.648 4.838,-6.097 7.573,-11.716 8.942,-16.416 2.176,-7.454 1.537,-12.817 1.719,-16.61 0.097,-2.007 0.767,-2.743 1.199,-1.84 -0.43,0.227 -0.854,0.463 -1.272,0.704 -0.459,-0.907 -1.24,-0.078 -1.365,2.019 -0.234,3.947 0.361,9.502 -1.756,17.231 -1.324,4.856 -3.963,10.642 -8.695,16.872 -5.119,6.732 -12.82,14.17 -22.953,18.877 -24.893,11.513 -59.317,-2.41 -93.045,-10.977 -16.09,-4.082 -30.676,-5.703 -42.998,-6.437 -12.235,-0.758 -26.556,-2.476 -42.465,-6.543 -34.128,-8.733 -70.424,-22.095 -97.512,-10.074 -10.864,4.839 -18.922,12.329 -23.863,19.061 -4.52,6.16 -6.586,11.839 -7.244,16.577 -1.055,7.465 0.585,12.856 1.049,16.664 0.244,2.022 -0.358,2.815 -0.972,1.94 -0.364,0.229 -0.731,0.453 -1.105,0.67 0.589,0.873 1.098,0.169 0.824,-1.764 -0.522,-3.653 -2.213,-8.852 -1.127,-16.036 0.695,-4.578 2.833,-10.09 7.439,-16.11 5.077,-6.61 13.269,-14.006 24.276,-18.815 27.473,-11.954 63.911,1.126 98.136,9.055 15.906,3.676 30.218,4.965 42.439,5.401"
       style="fill:#4d9b94;fill-opacity:1;fill-rule:nonzero;stroke:none"
       id="path875"
       inkscape:connector-curvature="0" /><path
       d="m 306.299,314.856 c 12.211,1.341 26.594,3.735 42.398,8.475 33.539,10.07 67.69,24.893 91.856,13.347 9.867,-4.737 17.281,-12.372 22.135,-19.328 4.535,-6.516 6.982,-12.609 8.222,-17.786 1.979,-8.257 1.43,-14.191 1.811,-18.42 0.207,-2.244 1.156,-3.216 1.699,-2.263 -0.729,0.465 -1.436,0.957 -2.145,1.454 -0.617,-0.945 -1.687,0.207 -1.961,2.616 -0.488,4.498 0.014,10.763 -1.867,19.457 -2.351,10.866 -10.963,29.058 -29.144,38.056 -23.387,11.502 -57.125,-3.877 -90.375,-15.272 -15.778,-5.4 -30.162,-8.503 -42.414,-10.379 -12.135,-1.917 -26.264,-5.117 -41.937,-10.477 -33.83,-11.579 -69.79,-26.288 -95.682,-14.198 -19.669,9.241 -27.937,27.372 -29.081,38.042 -0.897,8.458 0.582,14.558 0.768,18.924 0.086,2.334 -0.785,3.447 -1.546,2.532 -0.62,0.48 -1.238,0.952 -1.875,1.4 0.699,0.921 1.453,-0.014 1.303,-2.183 -0.306,-4.095 -1.866,-9.862 -0.911,-17.871 0.607,-5.061 2.502,-11.06 6.867,-17.511 4.715,-6.962 12.543,-14.66 23.203,-19.543 26.539,-12.099 62.746,2.103 96.777,12.353 15.664,4.711 29.789,7.202 41.899,8.575"
       style="fill:#a11768;fill-opacity:1;fill-rule:nonzero;stroke:none"
       id="path877"
       inkscape:connector-curvature="0" /><path
       d="m 305.471,315.023 c 11.453,-0.729 24.914,-1.212 39.836,0.58 34.246,4.129 70.179,17.653 98.257,7.254 11.401,-4.24 20.323,-11.178 26.51,-17.453 5.543,-5.628 8.887,-10.777 10.553,-14.95 2.617,-6.57 1.877,-11.324 1.752,-14.659 -0.066,-1.795 0.256,-2.304 0.519,-1.461 -0.818,0.329 -1.638,0.676 -2.435,1.05 -0.336,-0.856 -0.83,-0.201 -0.861,1.74 -0.022,3.621 0.664,8.748 -1.827,15.869 -1.586,4.503 -4.72,9.989 -10.039,15.915 -5.888,6.537 -14.465,13.703 -25.521,18.035 -27.168,10.604 -62.617,-3.588 -96.645,-9.339 -14.888,-2.509 -28.379,-2.787 -39.865,-2.627 -11.431,0.143 -24.682,-0.209 -39.328,-2.738 -34.156,-5.911 -71.035,-19.663 -100.225,-8.615 -11.757,4.466 -20.676,11.674 -26.375,18.208 -5.088,5.85 -7.616,11.22 -8.5,15.603 -1.355,6.828 0.441,11.794 1.142,15.269 0.356,1.863 0.022,2.484 -0.479,1.663 -0.687,0.352 -1.398,0.676 -2.104,0.983 0.439,0.806 0.625,0.325 0.175,-1.391 -0.847,-3.19 -2.721,-7.788 -1.274,-14.048 0.944,-4.051 3.654,-9.072 8.925,-14.62 5.962,-6.259 15.169,-13.229 27.207,-17.595 29.919,-10.797 67.078,2.351 101.334,6.633 14.64,1.825 27.86,1.412 39.268,0.694"
       style="fill:#d05b25;fill-opacity:1;fill-rule:nonzero;stroke:none"
       id="path879"
       inkscape:connector-curvature="0" /><path
       d="m 304.861,315.146 c 1.116,-0.221 2.246,-0.447 3.393,-0.672 11.621,-2.277 25.152,-4.336 40.469,-4.055 35.39,0.668 72.547,11.552 101.916,0.99 11.699,-4.227 20.925,-10.414 27.308,-15.62 5.643,-4.604 9.024,-8.518 10.633,-11.665 2.473,-4.882 1.522,-8.574 1.014,-11.073 -0.268,-1.294 -0.442,-1.398 -0.358,-0.448 -0.884,0.204 -1.765,0.427 -2.629,0.687 -0.177,-0.985 -0.218,-0.816 -0.054,0.584 0.326,2.746 1.187,6.795 -1.164,12.273 -1.537,3.519 -4.719,7.85 -10.119,12.843 -6.069,5.595 -14.915,12.144 -26.229,16.59 -28.32,11.094 -64.895,-0.311 -100.053,-2.761 -15.25,-1.055 -28.814,0.167 -40.48,1.794 -1.149,0.161 -2.283,0.324 -3.401,0.484 -1.115,0.16 -2.244,0.321 -3.386,0.48 -11.591,1.612 -24.851,2.754 -39.784,1.653 -35.067,-2.599 -72.758,-13.683 -102.551,-2.254 -11.783,4.532 -20.728,11.077 -26.437,16.63 -5.012,4.889 -7.493,9.078 -8.272,12.469 -1.146,5.161 0.816,9.061 1.812,11.673 0.5,1.334 0.511,1.491 0.094,0.553 -0.742,0.235 -1.501,0.436 -2.263,0.614 0.336,0.899 0.147,0.798 -0.453,-0.428 -1.158,-2.37 -3.227,-5.918 -1.986,-10.467 0.838,-3.021 3.495,-6.781 8.717,-11.278 5.991,-5.154 15.259,-11.328 27.359,-15.63 30.636,-10.844 68.666,-0.212 103.8,0.609 14.951,0.341 28.166,-1.641 39.72,-3.905 1.142,-0.223 2.269,-0.448 3.384,-0.67"
       style="fill:#fbf6ba;fill-opacity:1;fill-rule:nonzero;stroke:none"
       id="path881"
       inkscape:connector-curvature="0" /><path
       d="m 304.383,315.243 c 0.961,-0.298 1.933,-0.601 2.92,-0.907 11.472,-3.553 24.855,-7.324 40.256,-8.652 35.711,-3.062 74.226,6.971 105.877,-2.093 12.58,-3.62 22.66,-8.987 29.759,-13.344 6.186,-3.794 10.014,-6.841 11.793,-9.251 2.737,-3.727 1.573,-6.737 0.701,-8.843 -0.476,-1.122 -1.13,-1.215 -1.232,-0.362 -0.848,0.066 -1.682,0.169 -2.498,0.297 -0.008,-0.907 0.426,-0.824 0.803,0.378 0.691,2.281 1.759,5.623 -0.869,9.909 -1.702,2.774 -5.352,6.254 -11.293,10.461 -6.791,4.795 -16.495,10.588 -28.692,14.503 -30.64,9.799 -68.537,-0.721 -104.099,0.612 -15.336,0.58 -28.768,3.556 -40.284,6.498 -0.984,0.252 -1.955,0.502 -2.914,0.748 -0.965,0.247 -1.933,0.496 -2.914,0.748 -11.469,2.931 -24.573,5.834 -39.495,6.339 -35.109,1.176 -73.598,-9.175 -105.299,0.854 -12.534,3.98 -22.233,9.748 -28.601,14.484 -5.498,4.097 -8.404,7.412 -9.319,10.062 -1.366,3.936 0.829,7.138 2.154,9.298 0.716,1.132 1.12,1.224 0.843,0.37 -0.7,0.106 -1.418,0.182 -2.148,0.227 0.188,0.794 -0.414,0.689 -1.212,-0.367 -1.495,-1.989 -3.774,-4.865 -2.328,-8.229 0.993,-2.289 4.058,-5.158 9.773,-8.844 6.648,-4.286 16.673,-9.622 29.525,-13.297 32.502,-9.243 71.367,0.685 106.45,-2.208 14.942,-1.239 27.983,-4.94 39.417,-8.484 0.986,-0.305 1.959,-0.608 2.926,-0.907"
       style="fill:#637930;fill-opacity:1;fill-rule:nonzero;stroke:none"
       id="path883"
       inkscape:connector-curvature="0" /><path
       d="m 304.18,315.285 c 1.623,-0.583 3.283,-1.182 4.976,-1.787 11.713,-4.178 25.362,-8.481 41.09,-10.211 36.168,-3.948 74.951,5.196 106.713,-3.542 12.502,-3.45 22.531,-8.341 29.527,-12.13 6.108,-3.308 9.84,-5.836 11.516,-7.868 2.609,-3.146 1.326,-5.844 0.293,-7.761 -0.557,-1.016 -1.42,-1.106 -1.592,-0.275 0.543,-0.014 1.09,-0.028 1.643,-0.015 0.24,-0.783 1.258,-0.645 1.888,0.341 1.153,1.837 2.51,4.337 -0.15,7.13 -1.715,1.799 -5.563,4.033 -11.826,7.051 -7.194,3.467 -17.475,8.032 -30.233,11.235 -32.429,8.105 -71.675,-0.833 -107.935,4.242 -15.779,2.217 -29.393,7.056 -41.08,11.653 -1.696,0.666 -3.354,1.327 -4.979,1.966 -1.636,0.643 -3.296,1.303 -4.988,1.968 -11.618,4.579 -24.831,9.339 -40.068,11.449 -35.383,4.877 -74.707,-4.029 -107.622,4.179 -12.897,3.23 -23.004,7.747 -29.681,11.122 -5.745,2.906 -8.797,4.953 -9.734,6.628 -1.353,2.432 1.066,4.799 2.796,6.536 0.923,0.925 1.823,1.086 1.736,0.37 0.477,0.025 0.946,0.032 1.414,0.033 0.14,0.767 -0.621,0.653 -1.479,-0.299 -1.62,-1.813 -3.984,-4.379 -2.664,-7.163 0.895,-1.91 3.845,-4.255 9.442,-7.449 6.498,-3.702 16.38,-8.551 29.061,-12.036 32.381,-8.872 71.41,0.2 106.831,-3.565 15.22,-1.631 28.481,-5.856 40.122,-10.016 1.688,-0.603 3.348,-1.202 4.983,-1.786"
       style="fill:#f48148;fill-opacity:1;fill-rule:nonzero;stroke:none"
       id="path885"
       inkscape:connector-curvature="0" /><path
       d="m 303.326,315.457 c 0.985,-0.561 1.981,-1.133 2.988,-1.713 11.284,-6.485 24.358,-14.018 40.069,-18.963 36.019,-11.304 78.099,-3.364 114.527,-7.358 14.535,-1.604 26.512,-4.403 35.069,-6.238 7.373,-1.582 12.132,-2.409 14.183,-3.087 3.383,-1.119 1.459,-2.747 -0.336,-4.425 -1.029,-0.959 -2.851,-1.562 -3.445,-1.112 -1.322,-0.269 -2.639,-0.498 -3.928,-0.642 0.406,-0.618 1.867,-0.255 2.682,0.716 1.459,1.737 3.078,3.763 -0.047,5.741 -1.992,1.235 -6.426,2.818 -13.395,5.18 -8.084,2.732 -19.418,6.481 -33.283,8.865 -34.875,5.955 -75.66,-2.633 -111.644,5.974 -15.608,3.74 -28.795,10.04 -40.141,15.558 -0.998,0.485 -1.984,0.964 -2.957,1.434 -0.982,0.473 -1.973,0.953 -2.974,1.439 -11.34,5.506 -24.129,11.735 -39.134,15.356 -34.745,8.359 -75.07,-0.327 -110.103,5.66 -13.932,2.397 -25.068,6.102 -32.618,8.732 -6.457,2.254 -10.071,3.652 -11.298,4.756 -1.765,1.641 0.902,3.497 2.935,5.139 1.117,0.902 2.421,1.299 2.474,0.757 -1.114,-0.186 -2.254,-0.439 -3.393,-0.749 -0.203,0.364 -1.829,-0.277 -3.147,-1.174 -2.333,-1.59 -5.321,-2.985 -3.265,-3.833 1.292,-0.526 5.231,-1.184 12.087,-2.663 7.993,-1.719 19.715,-4.471 34.218,-6.066 36.234,-3.962 77.438,4.169 111.891,-6.825 15.035,-4.812 27.68,-12.271 38.97,-18.741 1.015,-0.582 2.019,-1.155 3.015,-1.718"
       style="fill:#f15f1f;fill-opacity:1;fill-rule:nonzero;stroke:none"
       id="path887"
       inkscape:connector-curvature="0" /><path
       d="m 433.49,54.165 c -12.242,-5.313 -22.606,-9.604 -31.458,-12.246 -7.582,-2.26 -14.159,-3.259 -19.545,-2.705 -9.133,0.952 -16.023,7.176 -21.85,14.033 -5.95,7.007 -11.484,14.504 -18.428,19.848 -6.759,5.186 -14.803,7.638 -22.173,6.698 -13.551,-1.758 -23.394,-11.231 -30.521,-17.986 -2.679,-2.539 -4.685,-4.546 -6.075,-5.965 -0.757,-0.773 -0.868,-0.97 -0.409,-0.585 0.438,0.367 0.198,0.002 -0.882,-1.101 -1.969,-2.014 -4.772,-4.88 -8.622,-8.112 -4.432,-3.717 -9.888,-7.448 -16.655,-8.067 -3.858,-0.347 -8.26,0.358 -12.95,2.01 -5.199,1.832 -10.903,4.791 -17.211,8.413 -14.531,8.35 -29.449,18.593 -43.861,23.145 -5.637,1.775 -10.51,2.215 -13.983,1.158 -3.109,-0.952 -5.185,-3.184 -6.321,-5.585 -1.904,-4.008 -1.905,-7.78 -1.845,-9.999 0.038,-1.121 0.413,-0.981 0.672,0.056 -0.252,-0.144 -0.504,-0.292 -0.759,-0.438 -0.282,-1.063 -0.73,-1.242 -0.801,-0.131 -0.123,2.183 -0.165,5.939 1.712,9.914 1.128,2.373 3.227,4.573 6.364,5.471 3.526,1.006 8.456,0.503 14.166,-1.327 14.576,-4.685 29.638,-14.966 44.282,-23.287 6.344,-3.605 12.08,-6.534 17.303,-8.332 4.711,-1.618 9.132,-2.284 13.005,-1.901 6.806,0.682 12.28,4.474 16.742,8.238 3.876,3.271 6.701,6.168 8.687,8.213 1.09,1.122 1.337,1.517 0.893,1.155 -0.462,-0.376 -0.348,-0.16 0.417,0.625 1.398,1.435 3.417,3.457 6.111,6.005 7.168,6.777 17.087,16.253 30.695,17.931 7.411,0.899 15.477,-1.619 22.258,-6.854 6.96,-5.389 12.501,-12.916 18.481,-19.931 5.849,-6.86 12.801,-13.07 22.012,-14.003 5.446,-0.543 12.096,0.469 19.775,2.738 8.968,2.649 19.473,6.957 31.898,12.274 -0.373,0.217 -0.751,0.423 -1.124,0.63"
       style="fill:#f48148;fill-opacity:1;fill-rule:nonzero;stroke:none"
       id="path889"
       inkscape:connector-curvature="0" /><path
       d="m 418.801,60.575 c -9.919,-4.972 -18.411,-8.873 -25.756,-11.136 -6.31,-1.942 -11.923,-2.609 -16.501,-1.809 -8.13,1.435 -14.16,7.891 -19.713,14.679 -5.601,6.851 -11.018,13.886 -17.752,18.546 -6.475,4.464 -14.173,6.044 -21.017,4.571 -12.758,-2.777 -21.66,-12.13 -28.292,-18.561 -2.476,-2.404 -4.345,-4.267 -5.633,-5.482 -0.71,-0.669 -0.807,-0.675 -0.376,-0.193 0.436,0.492 0.286,0.459 -0.651,-0.406 -1.719,-1.591 -4.213,-4.062 -7.71,-6.777 -4.011,-3.109 -9.138,-6.141 -15.332,-6.126 -7.452,0.032 -16.776,4.85 -27.74,11.919 -12.999,8.388 -26.188,18.107 -38.906,21.515 -4.968,1.324 -9.355,1.227 -12.475,-0.211 -2.942,-1.364 -4.934,-3.898 -6.25,-6.546 -2.195,-4.449 -2.791,-8.497 -3.502,-11.181 -0.382,-1.431 -0.789,-1.904 -0.818,-1.201 0.219,0.128 0.439,0.252 0.657,0.378 0.041,-0.698 0.506,-0.195 0.912,1.253 0.751,2.699 1.387,6.757 3.594,11.227 1.312,2.669 3.293,5.228 6.21,6.633 3.079,1.479 7.418,1.635 12.329,0.361 12.581,-3.279 25.655,-12.951 38.56,-21.346 10.911,-7.095 20.179,-11.979 27.612,-12.085 6.162,-0.075 11.274,2.9 15.261,5.965 3.478,2.676 5.957,5.126 7.661,6.69 0.934,0.854 1.083,0.868 0.642,0.366 -0.431,-0.493 -0.338,-0.5 0.37,0.163 1.279,1.199 3.139,3.053 5.603,5.446 6.596,6.408 15.436,15.754 28.141,18.603 6.807,1.511 14.482,-0.01 20.937,-4.424 6.721,-4.609 12.127,-11.616 17.705,-18.453 5.537,-6.778 11.516,-13.246 19.586,-14.707 4.532,-0.811 10.09,-0.16 16.326,1.765 7.259,2.246 15.643,6.131 25.431,11.083 0.293,-0.174 0.59,-0.345 0.887,-0.519"
       style="fill:#4d9b94;fill-opacity:1;fill-rule:nonzero;stroke:none"
       id="path891"
       inkscape:connector-curvature="0" /><path
       d="m 447.21,53.385 c -14.453,-5.798 -26.651,-10.722 -37.027,-13.992 -8.878,-2.794 -16.441,-4.344 -22.67,-4.246 -10.084,0.175 -17.885,5.809 -23.91,12.52 -6.207,6.919 -11.699,14.709 -18.644,20.634 -6.84,5.823 -14.979,9.151 -22.696,8.799 -14.045,-0.669 -24.756,-10.233 -32.353,-17.281 -2.897,-2.689 -5.086,-4.877 -6.625,-6.485 -0.901,-0.942 -1.142,-1.362 -0.704,-1.06 0.517,0.356 0.363,-0.045 -0.681,-1.168 -1.941,-2.084 -4.798,-5.036 -8.7,-8.467 -4.543,-3.993 -10.002,-8.138 -16.913,-9.339 -3.869,-0.669 -8.317,-0.328 -13.062,1.01 -5.237,1.483 -11.035,4.143 -17.457,7.555 -15.077,8.011 -30.853,18.549 -46.47,24.182 -6.244,2.246 -11.629,3.224 -15.586,2.579 -3.41,-0.559 -5.771,-2.506 -6.943,-4.745 -1.964,-3.759 -1.665,-7.573 -1.217,-9.645 0.24,-1.122 1.016,-0.808 1.436,0.352 0.588,0.342 1.173,0.677 1.751,1.014 -0.343,-1.097 -0.973,-1.316 -1.118,-0.171 -0.283,2.165 -0.448,6.001 1.529,9.875 1.198,2.299 3.484,4.353 6.823,5.027 3.83,0.766 9.073,-0.068 15.137,-2.19 15.238,-5.358 30.678,-15.833 45.508,-23.929 6.34,-3.461 12.068,-6.191 17.257,-7.758 4.692,-1.41 9.098,-1.841 12.935,-1.252 6.825,1.055 12.236,5.075 16.709,8.962 3.844,3.343 6.644,6.226 8.556,8.243 1.013,1.07 1.158,1.414 0.655,1.037 -0.427,-0.32 -0.198,0.05 0.685,0.962 1.52,1.571 3.676,3.728 6.533,6.395 7.503,7 18.028,16.577 31.947,17.433 7.628,0.452 15.719,-2.735 22.509,-8.453 6.913,-5.835 12.379,-13.569 18.521,-20.479 5.966,-6.705 13.609,-12.384 23.487,-12.592 6.073,-0.117 13.442,1.411 22.062,4.188 10.071,3.254 21.884,8.16 35.857,13.961 0.946,-0.488 1.908,-0.977 2.879,-1.476"
       style="fill:#f15f1f;fill-opacity:1;fill-rule:nonzero;stroke:none"
       id="path893"
       inkscape:connector-curvature="0" /><path
       d="m 432.388,58.939 c -12.052,-5.605 -22.292,-10.216 -31.092,-13.178 -7.538,-2.526 -14.088,-3.793 -19.481,-3.45 -9.038,0.589 -15.966,6.583 -21.707,13.317 -5.881,6.898 -11.29,14.365 -18.109,19.735 -6.628,5.199 -14.544,7.709 -21.811,6.787 -13.402,-1.729 -23.152,-11.284 -30.254,-18.051 -2.68,-2.553 -4.697,-4.573 -6.117,-5.98 -0.795,-0.787 -0.955,-0.96 -0.546,-0.57 0.456,0.434 0.313,0.269 -0.641,-0.673 -1.827,-1.805 -4.46,-4.473 -8.13,-7.501 -4.242,-3.496 -9.524,-7.025 -16.054,-7.493 -3.743,-0.263 -8.004,0.518 -12.531,2.224 -5.025,1.894 -10.515,4.891 -16.584,8.526 -13.948,8.363 -28.22,18.505 -42.076,22.729 -5.421,1.646 -10.154,1.921 -13.525,0.719 -3.078,-1.098 -5.15,-3.465 -6.371,-5.98 -2.039,-4.208 -2.282,-8.105 -2.543,-10.537 -0.123,-1.228 -0.066,-1.313 0.073,-0.409 0.428,0.246 0.854,0.49 1.276,0.735 -0.099,-0.875 -0.053,-0.726 0.131,0.523 0.363,2.478 0.692,6.388 2.744,10.66 1.237,2.552 3.266,4.976 6.296,6.161 3.291,1.278 7.927,1.123 13.227,-0.427 13.583,-3.989 27.623,-14.055 41.383,-22.454 6.009,-3.665 11.447,-6.708 16.43,-8.664 4.492,-1.76 8.72,-2.612 12.439,-2.413 6.465,0.353 11.717,3.778 15.91,7.193 3.634,2.959 6.229,5.582 8.029,7.333 0.941,0.917 1.076,1.04 0.624,0.59 -0.407,-0.405 -0.253,-0.263 0.533,0.506 1.404,1.378 3.402,3.377 6.053,5.913 7.034,6.725 16.653,16.281 29.956,18.152 7.199,0.998 15.076,-1.401 21.665,-6.512 6.799,-5.284 12.189,-12.701 18.019,-19.588 5.702,-6.727 12.52,-12.75 21.422,-13.381 5.288,-0.367 11.712,0.874 19.083,3.38 8.604,2.929 18.596,7.516 30.34,13.104 0.643,-0.336 1.288,-0.678 1.939,-1.026"
       style="fill:#fbf6ba;fill-opacity:1;fill-rule:nonzero;stroke:none"
       id="path895"
       inkscape:connector-curvature="0" /><path
       d="m 438.408,57.901 c -13.002,-5.795 -24.032,-10.65 -33.484,-13.844 -8.094,-2.736 -15.067,-4.21 -20.819,-4.041 -9.455,0.294 -16.773,6.066 -22.612,12.758 -6.002,6.889 -11.415,14.5 -18.263,20.128 -6.684,5.486 -14.67,8.375 -22.109,7.705 -13.65,-1.257 -23.788,-10.854 -31.095,-17.752 -2.772,-2.616 -4.861,-4.709 -6.342,-6.202 -0.845,-0.851 -1.047,-1.118 -0.644,-0.765 0.48,0.419 0.352,0.197 -0.604,-0.775 -1.848,-1.878 -4.532,-4.617 -8.258,-7.771 -4.326,-3.66 -9.642,-7.409 -16.285,-8.149 -3.772,-0.413 -8.086,0.204 -12.674,1.775 -5.08,1.741 -10.659,4.615 -16.829,8.175 -14.306,8.253 -29.053,18.568 -43.499,23.312 -5.695,1.861 -10.651,2.385 -14.222,1.365 -3.198,-0.915 -5.36,-3.164 -6.583,-5.596 -2.028,-4.084 -2.118,-7.97 -2.159,-10.313 -0.027,-1.197 0.256,-1.158 0.481,-0.19 0.398,0.226 0.791,0.451 1.179,0.681 -0.175,-0.937 -0.353,-0.915 -0.284,0.301 0.148,2.391 0.304,6.295 2.353,10.439 1.219,2.48 3.357,4.778 6.508,5.774 3.491,1.098 8.357,0.679 13.936,-1.098 14.194,-4.536 28.722,-14.793 42.858,-23.089 6.114,-3.588 11.645,-6.509 16.691,-8.308 4.553,-1.621 8.836,-2.299 12.588,-1.943 6.584,0.635 11.87,4.293 16.151,7.878 3.689,3.093 6.338,5.788 8.163,7.619 0.941,0.943 1.062,1.126 0.589,0.693 -0.398,-0.363 -0.203,-0.129 0.63,0.706 1.467,1.465 3.537,3.538 6.283,6.14 7.242,6.862 17.257,16.463 30.817,17.851 7.377,0.739 15.325,-2.052 21.981,-7.456 6.824,-5.559 12.215,-13.131 18.177,-20.008 5.801,-6.685 13.014,-12.49 22.335,-12.814 5.653,-0.19 12.499,1.265 20.428,3.982 9.259,3.172 20.045,8.006 32.745,13.794 0.614,-0.324 1.246,-0.634 1.872,-0.962"
       style="fill:#637930;fill-opacity:1;fill-rule:nonzero;stroke:none"
       id="path897"
       inkscape:connector-curvature="0" /><path
       d="m 420.452,64.341 c -10.186,-5.365 -18.918,-9.681 -26.503,-12.35 -6.502,-2.286 -12.267,-3.302 -17.004,-2.761 -8.215,0.955 -14.436,7.158 -19.942,13.844 -5.59,6.788 -10.896,13.901 -17.555,18.718 -6.398,4.612 -14.052,6.402 -20.892,5.025 -12.78,-2.6 -21.749,-12.084 -28.439,-18.588 -2.512,-2.444 -4.42,-4.345 -5.744,-5.578 -0.758,-0.705 -0.908,-0.727 -0.496,-0.244 0.47,0.553 0.381,0.626 -0.501,-0.167 -1.629,-1.465 -4.048,-3.844 -7.462,-6.451 -3.924,-2.994 -8.983,-5.911 -15.074,-5.786 -7.376,0.167 -16.548,5.121 -27.356,12.26 -12.759,8.431 -25.671,18.08 -38.061,21.145 -4.826,1.186 -9.096,0.916 -12.109,-0.651 -2.88,-1.503 -4.823,-4.127 -6.146,-6.842 -2.209,-4.542 -2.916,-8.613 -3.762,-11.318 -0.461,-1.451 -1.016,-1.979 -1.085,-1.26 0.382,0.222 0.759,0.443 1.138,0.656 0.101,-0.712 0.731,-0.134 1.243,1.343 0.925,2.719 1.697,6.804 3.916,11.39 2.625,5.414 9.093,9.941 17.942,7.897 12.15,-2.832 24.872,-12.383 37.461,-20.828 10.715,-7.183 19.79,-12.251 27.135,-12.547 6.03,-0.23 11.068,2.581 14.948,5.496 3.382,2.543 5.777,4.885 7.379,6.301 0.879,0.776 0.962,0.675 0.488,0.101 -0.415,-0.502 -0.268,-0.5 0.486,0.194 1.306,1.204 3.198,3.088 5.687,5.514 6.628,6.462 15.485,15.935 28.17,18.668 6.779,1.445 14.395,-0.23 20.756,-4.759 6.634,-4.731 11.924,-11.788 17.473,-18.555 5.475,-6.677 11.6,-12.904 19.705,-13.906 4.649,-0.566 10.313,0.418 16.68,2.674 7.426,2.632 15.962,6.909 25.903,12.243 0.536,-0.29 1.076,-0.585 1.621,-0.878"
       style="fill:#a11768;fill-opacity:1;fill-rule:nonzero;stroke:none"
       id="path899"
       inkscape:connector-curvature="0" /><path
       d="M 428.725,61.882 C 417.289,56.253 407.531,51.63 399.104,48.645 c -7.225,-2.555 -13.538,-3.846 -18.75,-3.535 -8.766,0.542 -15.518,6.477 -21.152,13.132 -5.767,6.816 -11.086,14.175 -17.8,19.433 -6.502,5.075 -14.281,7.475 -21.398,6.495 -13.182,-1.852 -22.741,-11.4 -29.756,-18.128 -2.658,-2.548 -4.674,-4.564 -6.106,-5.951 -0.827,-0.8 -1.035,-0.957 -0.668,-0.573 0.479,0.503 0.428,0.509 -0.41,-0.289 -1.666,-1.584 -4.125,-4.053 -7.595,-6.878 -4.031,-3.284 -9.082,-6.637 -15.329,-7.071 -7.342,-0.493 -16.768,3.739 -27.75,10.517 -13.298,8.214 -26.932,18.269 -40.425,22.556 -5.343,1.689 -10.072,2.001 -13.508,0.82 -3.16,-1.094 -5.356,-3.485 -6.721,-6.072 -2.299,-4.361 -2.762,-8.495 -3.302,-11.204 -0.288,-1.454 -0.518,-1.857 -0.48,-1.162 0.407,0.243 0.82,0.47 1.224,0.705 -0.003,-0.68 0.318,-0.21 0.667,1.262 0.635,2.74 1.171,6.887 3.476,11.308 1.38,2.617 3.523,5.069 6.633,6.249 3.354,1.259 7.989,1.059 13.218,-0.537 13.239,-4.058 26.66,-14.038 39.785,-22.29 10.885,-6.837 20.213,-11.199 27.523,-10.834 6.187,0.321 11.21,3.576 15.196,6.779 3.433,2.761 5.864,5.188 7.503,6.723 0.831,0.779 0.877,0.735 0.397,0.213 -0.371,-0.4 -0.165,-0.269 0.654,0.516 1.414,1.358 3.413,3.355 6.043,5.887 6.95,6.686 16.383,16.233 29.47,18.226 7.051,1.055 14.792,-1.234 21.258,-6.223 6.689,-5.175 11.992,-12.483 17.713,-19.284 5.596,-6.649 12.242,-12.613 20.88,-13.198 5.113,-0.339 11.307,0.924 18.373,3.454 8.244,2.953 17.771,7.546 28.923,13.15 0.608,-0.313 1.22,-0.632 1.835,-0.959"
       style="fill:#d05b25;fill-opacity:1;fill-rule:nonzero;stroke:none"
       id="path901"
       inkscape:connector-curvature="0" /></g></svg>